<svg xmlns="http://www.w3.org/2000/svg" viewBox="0 0 200 200">
  <!-- Фон -->
  <rect width="200" height="200" fill="#F0F4F8"/>
  
  <!-- Коробка с запчастями -->
  <rect x="40" y="80" width="120" height="90" fill="#8B4513" rx="5"/>
  <rect x="40" y="80" width="120" height="30" fill="#A0522D" rx="5"/>
  
  <!-- Детали выглядывают из коробки -->
  <!-- Поршень -->
  <rect x="55" y="60" width="20" height="30" fill="#C0C0C0" rx="2"/>
  <circle cx="65" cy="55" r="12" fill="#A9A9A9"/>
  
  <!-- Гайка -->
  <circle cx="100" cy="65" r="15" fill="#FFD700"/>
  <circle cx="100" cy="65" r="8" fill="#F0F4F8"/>
  
  <!-- Болт -->
  <rect x="125" y="55" width="10" height="35" fill="#708090" rx="2"/>
  <circle cx="130" cy="50" r="8" fill="#778899"/>
  
  <!-- Шестерня -->
  <circle cx="80" cy="135" r="20" fill="#4682B4"/>
  <circle cx="80" cy="135" r="10" fill="#F0F4F8"/>
  <!-- Зубья шестерни -->
  <rect x="78" y="115" width="4" height="8" fill="#4682B4"/>
  <rect x="78" y="147" width="4" height="8" fill="#4682B4"/>
  <rect x="92" y="133" width="8" height="4" fill="#4682B4"/>
  <rect x="60" y="133" width="8" height="4" fill="#4682B4"/>
  
  <!-- Надпись на коробке -->
  <text x="100" y="100" font-family="Arial" font-size="14" fill="white" text-anchor="middle" font-weight="bold">AUTO</text>
  <text x="100" y="115" font-family="Arial" font-size="12" fill="white" text-anchor="middle">PARTS</text>
</svg>
