<svg xmlns="http://www.w3.org/2000/svg" viewBox="0 0 200 200">
  <!-- Фон -->
  <rect width="200" height="200" fill="#FFF8DC"/>
  
  <!-- Грузовик -->
  <!-- Кузов -->
  <rect x="30" y="90" width="70" height="50" fill="#FF6B35" rx="5"/>
  
  <!-- Кабина -->
  <rect x="100" y="100" width="40" height="40" fill="#FF8C55" rx="5"/>
  
  <!-- Окно -->
  <rect x="105" y="105" width="30" height="20" fill="#87CEEB"/>
  
  <!-- Колеса -->
  <circle cx="50" cy="145" r="12" fill="#2C3E50"/>
  <circle cx="50" cy="145" r="6" fill="#95A5A6"/>
  
  <circle cx="85" cy="145" r="12" fill="#2C3E50"/>
  <circle cx="85" cy="145" r="6" fill="#95A5A6"/>
  
  <circle cx="125" cy="145" r="12" fill="#2C3E50"/>
  <circle cx="125" cy="145" r="6" fill="#95A5A6"/>
  
  <!-- Коробка на кузове -->
  <rect x="40" y="70" width="30" height="25" fill="#8B4513"/>
  <line x1="40" y1="82" x2="70" y2="82" stroke="#654321" stroke-width="2"/>
  <line x1="55" y1="70" x2="55" y2="95" stroke="#654321" stroke-width="2"/>
  
  <!-- Линии скорости -->
  <line x1="5" y1="100" x2="20" y2="100" stroke="#C0C0C0" stroke-width="3" stroke-linecap="round"/>
  <line x1="5" y1="115" x2="25" y2="115" stroke="#C0C0C0" stroke-width="3" stroke-linecap="round"/>
  <line x1="5" y1="130" x2="15" y2="130" stroke="#C0C0C0" stroke-width="3" stroke-linecap="round"/>
  
  <!-- Стрелка направления -->
  <path d="M 150 80 L 180 80 L 175 75 M 180 80 L 175 85" stroke="#4CAF50" stroke-width="4" fill="none" stroke-linecap="round"/>
  
  <!-- Часы (быстрая доставка) -->
  <circle cx="160" cy="50" r="18" fill="white" stroke="#4CAF50" stroke-width="3"/>
  <line x1="160" y1="50" x2="160" y2="40" stroke="#4CAF50" stroke-width="2"/>
  <line x1="160" y1="50" x2="168" y2="50" stroke="#4CAF50" stroke-width="2"/>
</svg>
