<svg xmlns="http://www.w3.org/2000/svg" viewBox="0 0 300 300">
  <defs>
    <linearGradient id="turboGrad" x1="0%" y1="0%" x2="100%" y2="100%">
      <stop offset="0%" style="stop-color:#F39C12;stop-opacity:1" />
      <stop offset="100%" style="stop-color:#D68910;stop-opacity:1" />
    </linearGradient>
  </defs>
  <rect width="300" height="300" fill="#f5f5f5"/>
  <!-- Turbine housing -->
  <path d="M 100 100 L 180 80 L 200 150 L 180 220 L 100 200 Z" fill="url(#turboGrad)" stroke="#333" stroke-width="2"/>
  <!-- Compressor side -->
  <ellipse cx="70" cy="150" rx="40" ry="50" fill="#666"/>
  <!-- Turbine wheels -->
  <circle cx="150" cy="150" r="35" fill="#333"/>
  <!-- Turbine blades -->
  <path d="M 150 115 L 165 140 L 155 150 L 140 135 Z" fill="#FFD700"/>
  <path d="M 150 185 L 165 160 L 155 150 L 140 165 Z" fill="#FFD700"/>
  <path d="M 115 150 L 140 135 L 150 145 L 130 160 Z" fill="#FFD700"/>
  <path d="M 185 150 L 160 165 L 150 155 L 170 140 Z" fill="#FFD700"/>
  <!-- Center shaft -->
  <circle cx="150" cy="150" r="8" fill="#444"/>
  <!-- Compressor impeller -->
  <circle cx="70" cy="150" r="30" fill="#444"/>
  <path d="M 70 120 L 85 135 L 80 150 L 65 140 Z" fill="#FFD700" opacity="0.7"/>
  <path d="M 70 180 L 85 165 L 80 150 L 65 160 Z" fill="#FFD700" opacity="0.7"/>
  <!-- Air inlet -->
  <path d="M 30 140 L 40 140 L 40 160 L 30 160 Z" fill="#87CEEB" opacity="0.5"/>
  <!-- Air outlet -->
  <path d="M 210 140 L 220 140 L 220 160 L 210 160 Z" fill="#FF6B6B" opacity="0.5"/>
  <text x="150" y="275" font-size="16" font-weight="bold" text-anchor="middle" fill="#333">Турбокомпрессор</text>
</svg>